<svg xmlns="http://www.w3.org/2000/svg" width="45" height="45" viewBox="0 0 45 45"><path fill="#fff" d="M0 0v45h45V0z"/><path d="M0 0v45h45v-7.1h-6.2l-2.3-2.7-2.4 2.7H16.5V23.6h-5.8L18 7.1h7l1.7 3.7V7.1h8.8L37 11l1.4-3.9H45V0H0zm40.2 23.6l-3.6 3.9-3.6-3.9H19v12h10V33h-7v-2.1h6.8v-2.6H22v-2.1h7v-2.6l5.6 6-5.6 6h3.9l3.6-3.9 3.6 3.9h4l-5.6-6 5.6-6h-3.9zm1.4 6L45 33v-6.9l-3.4 3.5zM39.9 9.4l-2.3 6.1-.6 1.7-.6-1.7L34 9.4h-5v12h3V12l.6 1.6 2.9 7.8h2.9l2.9-7.8.6-1.6v9.4H45v-12h-5.1zm-20.3 0l-5.3 12h3.5l.9-2.3h5.8l.9 2.3H29l-5.3-12h-4.1zm1.4 4.1l.6-1.5.6 1.5 1.2 3h-3.7l1.3-3z" fill="#006fcf"/></svg>