<svg xmlns="http://www.w3.org/2000/svg" viewBox="0 0 343.51 44.81"><title>Checkout.com logo - Brandlogos.net</title><path d="M466.7,396.92a3.47,3.47,0,1,0-3.41-3.47A3.44,3.44,0,0,0,466.7,396.92Z" transform="translate(-212.25 -361.59)" style="fill:#00122c"/><path d="M270.65,396a10,10,0,0,1-3.86-2.74,13.41,13.41,0,0,1-3.41-9.22,15.64,15.64,0,0,1,.81-5.11,11,11,0,0,1,2.42-4.11,11.18,11.18,0,0,1,3.77-2.74,12.67,12.67,0,0,1,5-1,12.06,12.06,0,0,1,4.21.64,13,13,0,0,1,3.32,1.83,7.62,7.62,0,0,1,2.24,2.83,10.23,10.23,0,0,1,1.17,3.65h-6.28a4.65,4.65,0,0,0-1.52-2.74,4.25,4.25,0,0,0-3-1.1,5.06,5.06,0,0,0-4.39,2.1,9.59,9.59,0,0,0-1.43,5.66,9.78,9.78,0,0,0,1.43,5.66,4.76,4.76,0,0,0,4.39,2.1,5.07,5.07,0,0,0,3.23-1,5.39,5.39,0,0,0,1.61-3.19h6.28a10.08,10.08,0,0,1-3.23,6.66,10.15,10.15,0,0,1-3.32,2,13.46,13.46,0,0,1-4.39.73A11.63,11.63,0,0,1,270.65,396Z" transform="translate(-212.25 -361.59)" style="fill:#00122c"/><path d="M296.75,374.83a10,10,0,0,1,3-2.92,7.91,7.91,0,0,1,4.13-1,8.14,8.14,0,0,1,3.41.73,7.76,7.76,0,0,1,2.6,1.92,10.35,10.35,0,0,1,1.7,2.92,9.92,9.92,0,0,1,.63,3.74v16.06h-6.46V381.13a4.82,4.82,0,0,0-1.08-3.29,4,4,0,0,0-3.14-1.28,4.51,4.51,0,0,0-3.5,1.55,6,6,0,0,0-1.43,4.11v14.06h-6.46V361.87h6.46v13Z" transform="translate(-212.25 -361.59)" style="fill:#00122c"/><path d="M322.76,396a11,11,0,0,1-3.95-2.74,11.41,11.41,0,0,1-2.42-4.2,16,16,0,0,1-.81-5.11,13.6,13.6,0,0,1,.9-5.11,15.41,15.41,0,0,1,2.42-4.11,11.18,11.18,0,0,1,3.77-2.74,11.79,11.79,0,0,1,4.84-1,10.94,10.94,0,0,1,8.88,4.11,15,15,0,0,1,2.33,4.65,21.24,21.24,0,0,1,.81,6H322a8.46,8.46,0,0,0,1.88,4.56,5.5,5.5,0,0,0,4.3,1.64,5.25,5.25,0,0,0,3-.82A4.38,4.38,0,0,0,332.8,389h6.37a10,10,0,0,1-1.17,3.1,10.14,10.14,0,0,1-2.24,2.56,9.62,9.62,0,0,1-3.32,1.73,12.4,12.4,0,0,1-4.22.64A14.64,14.64,0,0,1,322.76,396Zm1-18.62a8,8,0,0,0-1.79,3.83h10.76a6.13,6.13,0,0,0-1.52-3.83,4.62,4.62,0,0,0-3.59-1.46A5.54,5.54,0,0,0,323.74,377.38Z" transform="translate(-212.25 -361.59)" style="fill:#00122c"/><path d="M349.12,396a10,10,0,0,1-3.86-2.74,13.41,13.41,0,0,1-3.41-9.22,15.64,15.64,0,0,1,.81-5.11,11,11,0,0,1,2.42-4.11,11.18,11.18,0,0,1,3.77-2.74,12.66,12.66,0,0,1,5-1,12.06,12.06,0,0,1,4.21.64,13,13,0,0,1,3.32,1.83,7.62,7.62,0,0,1,2.24,2.83,10.23,10.23,0,0,1,1.17,3.65h-6.28A4.65,4.65,0,0,0,357,377.3a4.25,4.25,0,0,0-3-1.1,5.06,5.06,0,0,0-4.39,2.1,9.59,9.59,0,0,0-1.43,5.66,9.78,9.78,0,0,0,1.43,5.66,4.76,4.76,0,0,0,4.39,2.1,5.07,5.07,0,0,0,3.23-1,5.39,5.39,0,0,0,1.61-3.19h6.19a10.08,10.08,0,0,1-3.23,6.66,10.15,10.15,0,0,1-3.32,2,13.46,13.46,0,0,1-4.39.73A11.47,11.47,0,0,1,349.12,396Z" transform="translate(-212.25 -361.59)" style="fill:#00122c"/><path d="M375,388v8.31h-6.37V361.87H375v19.08l8.61-9.31h7.71l-9,9.4,10,15.24h-7.8l-6.82-11.23Z" transform="translate(-212.25 -361.59)" style="fill:#00122c"/><path d="M399.53,396a12.24,12.24,0,0,1-4-2.74,13.83,13.83,0,0,1-2.6-4.11,15,15,0,0,1,0-10.22,12.76,12.76,0,0,1,2.6-4.11,10.64,10.64,0,0,1,4-2.74,13.52,13.52,0,0,1,10.23,0,12.23,12.23,0,0,1,4,2.74,13.83,13.83,0,0,1,2.6,4.11,15,15,0,0,1,0,10.22,12.76,12.76,0,0,1-2.6,4.11,10.63,10.63,0,0,1-4,2.74,13.52,13.52,0,0,1-10.23,0Zm9.69-6.21a11.38,11.38,0,0,0,0-11.68,5.42,5.42,0,0,0-4.57-2.28,5.2,5.2,0,0,0-4.57,2.28,11.37,11.37,0,0,0,0,11.68,5.87,5.87,0,0,0,9.15,0Z" transform="translate(-212.25 -361.59)" style="fill:#00122c"/><path d="M436.12,393.36h-.18a10.85,10.85,0,0,1-2.78,2.65,7.92,7.92,0,0,1-4.12.91,8.38,8.38,0,0,1-6.28-2.37,9.38,9.38,0,0,1-2.15-6.48V371.64H427V387a4.92,4.92,0,0,0,1,3.29,3.94,3.94,0,0,0,3,1.19,4.56,4.56,0,0,0,3.59-1.55,5.86,5.86,0,0,0,1.34-4V371.64h6.46v24.64h-6.19v-2.92Z" transform="translate(-212.25 -361.59)" style="fill:#00122c"/><path d="M448.58,371.63v-7.76h6.28v7.76H459v4.29h-4.13V389a2.34,2.34,0,0,0,.63,1.92,2.64,2.64,0,0,0,1.79.55h1.26a1.5,1.5,0,0,0,.63-.09v4.93c-.36,0-.63.09-1.08.09s-.81.09-1.25.09h-1.7a10.15,10.15,0,0,1-2.33-.27,5.3,5.3,0,0,1-2.06-.91,5,5,0,0,1-1.52-1.83,6.66,6.66,0,0,1-.63-2.92v-14.6h-3.32v-4.29Z" transform="translate(-212.25 -361.59)" style="fill:#00122c"/><path d="M479.43,395.91a10.21,10.21,0,0,1-3.5-2.74,11.22,11.22,0,0,1-2.15-4.11,18.68,18.68,0,0,1-.72-5.2,19.17,19.17,0,0,1,.72-5.2,13.62,13.62,0,0,1,2.15-4.11,10.2,10.2,0,0,1,3.5-2.74,11.07,11.07,0,0,1,4.75-1,10.35,10.35,0,0,1,6.64,2.1,9.4,9.4,0,0,1,3.23,5.93h-2.87a6.48,6.48,0,0,0-2.33-4.2,7.21,7.21,0,0,0-4.57-1.37,7.83,7.83,0,0,0-3.68.82,6.73,6.73,0,0,0-2.51,2.28,9.53,9.53,0,0,0-1.44,3.38,17.36,17.36,0,0,0,.09,8.21,10.46,10.46,0,0,0,1.53,3.38,6.73,6.73,0,0,0,2.51,2.28,7.46,7.46,0,0,0,3.59.82,7.09,7.09,0,0,0,5-1.83,7.85,7.85,0,0,0,2.24-4.84h2.78a10.28,10.28,0,0,1-3,6.75,9.66,9.66,0,0,1-7,2.46A12.75,12.75,0,0,1,479.43,395.91Z" transform="translate(-212.25 -361.59)" style="fill:#00122c"/><path d="M503.38,395.91a9.72,9.72,0,0,1-3.59-2.74,12.91,12.91,0,0,1-2.24-4.11,15.82,15.82,0,0,1-.81-5.2,16.21,16.21,0,0,1,.81-5.2,12,12,0,0,1,2.24-4.11,9.72,9.72,0,0,1,3.59-2.74,11.75,11.75,0,0,1,9.51,0,10.52,10.52,0,0,1,3.59,2.74,13,13,0,0,1,2.24,4.11,15.86,15.86,0,0,1,.72,5.2,19.17,19.17,0,0,1-.72,5.2,12,12,0,0,1-2.24,4.11,9.73,9.73,0,0,1-3.59,2.74,11.08,11.08,0,0,1-4.75,1A11.68,11.68,0,0,1,503.38,395.91Zm8.34-2.28a7,7,0,0,0,2.6-2.28,8.85,8.85,0,0,0,1.53-3.38,16,16,0,0,0,0-8.21,12.79,12.79,0,0,0-1.53-3.38,7,7,0,0,0-2.6-2.28,7.71,7.71,0,0,0-3.59-.82,7.45,7.45,0,0,0-3.59.82,7.78,7.78,0,0,0-2.6,2.28,10.65,10.65,0,0,0-1.61,3.38,16,16,0,0,0,0,8.21,10.66,10.66,0,0,0,1.61,3.38,7.78,7.78,0,0,0,2.6,2.28,8.25,8.25,0,0,0,7.18,0Z" transform="translate(-212.25 -361.59)" style="fill:#00122c"/><path d="M526.52,371.36v3.74h.09a10.78,10.78,0,0,1,3-3.1,7.66,7.66,0,0,1,4.48-1.19,7.45,7.45,0,0,1,4,1.1,6.45,6.45,0,0,1,2.51,3.38h.09a8.9,8.9,0,0,1,3.23-3.38,8.57,8.57,0,0,1,4.57-1.19,7.32,7.32,0,0,1,2.87.55,6.8,6.8,0,0,1,2.33,1.46,6.72,6.72,0,0,1,1.52,2.46,9.71,9.71,0,0,1,.54,3.29v17.8h-2.87V378.85a5.31,5.31,0,0,0-1.43-4.11,5.19,5.19,0,0,0-3.68-1.28,7.25,7.25,0,0,0-2.51.46,6.87,6.87,0,0,0-2.06,1.37,7.07,7.07,0,0,0-2,5.11v15.88h-3V378.85a5.31,5.31,0,0,0-1.44-4.11,4.62,4.62,0,0,0-3.5-1.28,5.94,5.94,0,0,0-2.51.55,8.62,8.62,0,0,0-2.24,1.46,6.72,6.72,0,0,0-1.53,2.28,7.22,7.22,0,0,0-.54,2.83v15.7h-3V371.36Z" transform="translate(-212.25 -361.59)" style="fill:#00122c"/><path d="M239.17,384l11.48-20.44a1.26,1.26,0,0,0,0-1.37,1.53,1.53,0,0,0-1.17-.64H225.81a1.53,1.53,0,0,0-1.17.64l-12.2,21.08a1.26,1.26,0,0,0,0,1.37l12.2,21.08a1.3,1.3,0,0,0,1.17.64h23.68a1.53,1.53,0,0,0,1.17-.64,1.26,1.26,0,0,0,0-1.37Zm-1.52-2.74-9.51-17h19.1ZM225.72,365.7,236,384l-10.31,18.35L215.14,384Zm2.42,38,9.51-17,9.51,17Z" transform="translate(-212.25 -361.59)" style="fill:#00122c"/></svg>