<?xml version="1.0" encoding="iso-8859-1"?>
<!-- Generator: Adobe Illustrator 19.0.0, SVG Export Plug-In . SVG Version: 6.00 Build 0)  -->
<svg version="1.1" id="Layer_1" xmlns="http://www.w3.org/2000/svg" xmlns:xlink="http://www.w3.org/1999/xlink" x="0px" y="0px"
	 viewBox="0 0 496.158 496.158" style="enable-background:new 0 0 496.158 496.158;" xml:space="preserve">
<path style="fill:#4ABC96;" d="M248.082,0.003C111.07,0.003,0,111.063,0,248.085c0,137.001,111.07,248.07,248.082,248.07
	c137.006,0,248.076-111.069,248.076-248.07C496.158,111.062,385.088,0.003,248.082,0.003z"/>
<path style="fill:#323531;" d="M322.826,372.954l-18.365-42.134c-0.26-0.596-0.749-1.064-1.356-1.298l-5.769-2.219l-13.965-71.373
	c5.1-2.545,19.291-10.589,19.663-21.391c0.229-6.633-4.665-12.78-14.546-18.286c0.62-3.592,1.487-11.297-1.475-15.589
	c-0.563-0.816-1.244-1.485-2.02-1.994c2.87-7.086,4.378-18.858-5.934-25.248c-0.157-0.227-0.414-1.006-0.128-2.548l16.165-51.455
	c0.138-0.441,0.148-0.912,0.029-1.358c-0.266-0.988-7.112-24.898-47.048-23.419c-40.003-1.467-46.784,22.432-47.048,23.42
	c-0.119,0.446-0.109,0.917,0.029,1.358l16.165,51.455c0.286,1.536,0.031,2.315-0.126,2.544c-10.324,6.358-8.811,18.155-5.936,25.252
	c-0.775,0.509-1.456,1.177-2.02,1.994c-2.963,4.292-2.096,11.998-1.475,15.589c-9.882,5.506-14.774,11.653-14.547,18.286
	c0.371,10.802,14.563,18.845,19.664,21.391l-13.965,71.373l-5.769,2.219c-0.607,0.233-1.097,0.702-1.357,1.298l-18.365,42.134
	c-0.132,0.306-0.202,0.637-0.202,0.971v46.186c0,0.527,0.172,1.04,0.487,1.46c13.848,18.413,47.546,24.973,74.463,24.973
	s60.615-6.56,74.462-24.973c0.316-0.42,0.488-0.933,0.488-1.46v-46.186C323.029,373.591,322.959,373.26,322.826,372.954z"/>
<path style="fill:#3A3F39;" d="M303.104,329.522l-5.769-2.219h-98.514l-5.769,2.219c-0.607,0.233-1.097,0.702-1.357,1.298
	c0,0,29.466,11.775,56.383,11.775s56.382-11.775,56.382-11.775C304.201,330.224,303.712,329.755,303.104,329.522z"/>
<path style="fill:#191E18;" d="M303.034,234.539c0.229-6.633-4.665-12.78-14.546-18.286c0.62-3.592,1.487-11.297-1.475-15.589
	c-0.563-0.816-1.244-1.485-2.02-1.994c2.87-7.086,4.378-18.858-5.934-25.248c-0.157-0.227-0.414-1.006-0.128-2.548l16.165-51.455
	c0.138-0.441,0.148-0.912,0.029-1.358c-0.266-0.988-7.112-24.898-47.048-23.419c-40.003-1.467-46.784,22.432-47.048,23.42
	c-0.119,0.446-0.109,0.917,0.029,1.358l16.165,51.455c0.286,1.536,0.031,2.315-0.126,2.544c-10.324,6.358-8.811,18.155-5.936,25.252
	c-0.775,0.509-1.456,1.177-2.02,1.994c-2.963,4.292-2.096,11.998-1.475,15.589c-9.882,5.506-14.774,11.653-14.547,18.286
	c0.371,10.802,14.563,18.845,19.664,21.391l-13.965,71.373c0,0,21.557,9.349,49.653,9.349c28.098,0,48.86-9.349,48.86-9.349
	l-13.965-71.373C288.471,253.385,302.662,245.341,303.034,234.539z"/>
<path style="fill:#090A09;" d="M288.488,219.826c0.62-3.592-81.439-3.592-80.818,0c-9.882,5.506-14.774,11.653-14.547,18.286
	c0.371,10.802,14.563,18.845,19.664,21.391c0,0,17.703,7.099,34.711,7.099s35.873-7.099,35.873-7.099
	c5.1-2.546,19.291-10.589,19.663-21.391C303.263,231.478,298.369,225.331,288.488,219.826z"/>
<path style="fill:#191E18;" d="M288.488,216.253c0,0-23.996,8.156-40.318,8.156s-40.5-8.156-40.5-8.156
	c-9.882,5.506-14.774,11.653-14.547,18.286c0.371,10.802,14.563,18.845,19.664,21.391c0,0,17.703,7.099,34.711,7.099
	s35.873-7.099,35.873-7.099c5.1-2.545,19.291-10.589,19.663-21.391C303.263,227.907,298.369,221.76,288.488,216.253z"/>
<path style="fill:#3A3F39;" d="M295.127,118.061c-0.266-0.988-7.112-24.898-47.048-23.419c-40.003-1.467-46.784,22.432-47.048,23.42
	c-0.119,0.446-0.109,0.917,0.029,1.358c0,0,12.189,12.64,48.24,12.64s45.797-12.64,45.797-12.64
	C295.235,118.978,295.246,118.507,295.127,118.061z"/>
<path style="fill:#242C23;" d="M322.826,372.954c0,0-19.785,15.016-73.803,15.016c-54.017,0-75.692-15.016-75.692-15.016
	c-0.132,0.306-0.202,0.637-0.202,0.971v46.186c0,0.527,0.172,1.04,0.487,1.46c13.848,18.413,47.546,24.973,74.463,24.973
	s60.615-6.56,74.462-24.973c0.316-0.42,0.488-0.933,0.488-1.46v-46.186C323.029,373.591,322.959,373.26,322.826,372.954z"/>
<g>
	<rect x="236.739" y="49.619" style="fill:#191E18;" width="22.282" height="63.4"/>
	<rect x="222.249" y="62.883" style="fill:#191E18;" width="51.25" height="23.09"/>
</g>
<path style="fill:#3A3F39;" d="M288.799,216.066c0.383-3.829,0.358-8.724-1.785-11.83c-0.563-0.816-1.244-1.485-2.02-1.994
	c0,0-20.502,7.369-36.824,7.369s-37.006-7.369-37.006-7.369c-0.775,0.509-1.456,1.178-2.02,1.994
	c-2.131,3.086-2.168,7.937-1.793,11.755c0,0-5.698,2.826-5.498,3.835c0,0,23.9,10.473,46.748,10.452
	c22.499-0.021,45.702-10.452,45.702-10.452C294.5,218.833,288.799,216.066,288.799,216.066z"/>
<path style="fill:#191E18;" d="M287.014,200.664c-0.563-0.816-1.244-1.485-2.02-1.994c0,0-20.502,7.369-36.824,7.369
	s-37.006-7.369-37.006-7.369c-0.775,0.509-1.456,1.177-2.02,1.994c-2.963,4.292-2.096,11.998-1.475,15.589
	c0,0,18.084,10.474,40.932,10.452c22.499-0.021,39.887-10.452,39.887-10.452C289.108,212.662,289.975,204.956,287.014,200.664z"/>
<path style="fill:#3A3F39;" d="M285.244,198.749c2.065-7.023,2.572-16.33-6.184-21.755c-0.157-0.226-0.414-4.578-0.128-6.12
	c0,0-14.44,4.208-30.763,4.208s-30.944-4.208-30.944-4.208c0.286,1.536,0.031,5.887-0.126,6.117
	c-8.766,5.398-8.258,14.718-6.188,21.753c0,0-2.941,2.428-2.476,3.499c-0.411,0.251,20.495,7.876,38.893,7.879
	c18.898,0.003,40.817-7.621,40.395-7.879C288.187,201.173,285.244,198.749,285.244,198.749z"/>
<path style="fill:#191E18;" d="M279.06,173.422c-0.157-0.227-14.568,4.551-30.891,4.551s-30.913-4.784-31.07-4.555
	c-10.324,6.358-8.811,18.155-5.936,25.252c-0.383,0.251,17.767,7.876,36.164,7.879c18.898,0.003,38.059-7.622,37.666-7.879
	C287.864,191.584,289.372,179.812,279.06,173.422z"/>
<g>
</g>
<g>
</g>
<g>
</g>
<g>
</g>
<g>
</g>
<g>
</g>
<g>
</g>
<g>
</g>
<g>
</g>
<g>
</g>
<g>
</g>
<g>
</g>
<g>
</g>
<g>
</g>
<g>
</g>
</svg>
