<?xml version="1.0" encoding="iso-8859-1"?>
<!-- Generator: Adobe Illustrator 19.0.0, SVG Export Plug-In . SVG Version: 6.00 Build 0)  -->
<svg version="1.1" id="Layer_1" xmlns="http://www.w3.org/2000/svg" xmlns:xlink="http://www.w3.org/1999/xlink" x="0px" y="0px"
	 viewBox="0 0 512 512" style="enable-background:new 0 0 512 512;" xml:space="preserve">
<circle style="fill:#AFEFF2;" cx="256" cy="256" r="256"/>
<g>
	<polygon style="fill:#38C6D9;" points="170.667,199.111 305.304,333.748 196.18,333.748 	"/>
	<path style="fill:#38C6D9;" d="M256,512c120.501,0,221.349-83.092,248.76-195.146L322.198,136.189l-51.545,172.735l-185.32,32.409
		L256,512z"/>
</g>
<polygon style="fill:#FF5419;" points="85.333,341.333 170.667,199.111 256,341.333 "/>
<polygon style="fill:#DD3B10;" points="170.667,199.111 170.149,200.145 170.149,341.333 256,341.333 "/>
<path style="fill:#FFFFFF;" d="M199.628,247.553l-28.962-48.442l-35.168,58.613C157.91,262.551,180.493,260.31,199.628,247.553z"/>
<path style="fill:#C9C9C9;" d="M170.667,199.111l-0.517,1.034v58.958c10.343-1.724,20.342-5.344,29.651-11.55L170.667,199.111z"/>
<polygon style="fill:#FF7F4F;" points="199.111,341.333 322.198,136.189 445.285,341.333 "/>
<polygon style="fill:#FF5419;" points="322.198,136.189 320.991,138.257 320.991,341.333 445.285,341.333 "/>
<path style="fill:#FFFFFF;" d="M367.881,212.213l-45.684-76.024l-51.545,85.85c10.343,1.724,20.859,4.137,31.892,7.24
	C326.853,234.624,347.022,222.039,367.881,212.213z"/>
<path style="fill:#C9C9C9;" d="M322.198,136.189l-1.207,2.069v91.884c16.549-1.896,31.547-10.688,46.89-17.929L322.198,136.189z"/>
<g>
</g>
<g>
</g>
<g>
</g>
<g>
</g>
<g>
</g>
<g>
</g>
<g>
</g>
<g>
</g>
<g>
</g>
<g>
</g>
<g>
</g>
<g>
</g>
<g>
</g>
<g>
</g>
<g>
</g>
</svg>
