<?xml version="1.0" encoding="iso-8859-1"?>
<!-- Generator: Adobe Illustrator 19.0.0, SVG Export Plug-In . SVG Version: 6.00 Build 0)  -->
<svg version="1.1" id="Layer_1" xmlns="http://www.w3.org/2000/svg" xmlns:xlink="http://www.w3.org/1999/xlink" x="0px" y="0px"
	 viewBox="0 0 509 509" style="enable-background:new 0 0 509 509;" xml:space="preserve">
<circle style="fill:#FBD303;" cx="254.5" cy="254.5" r="254.5"/>
<g>
	<path style="fill:#080708;" d="M125.3,208.2H83.9c-5.2,0-9.4,4.2-9.4,9.4v96.5c0,5.2,4.2,9.4,9.4,9.4h41.4c5.2,0,9.4-4.2,9.4-9.4
		v-96.5C134.7,212.4,130.5,208.2,125.3,208.2z"/>
	<path style="fill:#080708;" d="M425.1,208.2h-41.4c-5.2,0-9.4,4.2-9.4,9.4v96.5c0,5.2,4.2,9.4,9.4,9.4h41.4c5.2,0,9.4-4.2,9.4-9.4
		v-96.5C434.5,212.4,430.3,208.2,425.1,208.2z"/>
</g>
<g>
	<path style="fill:#333842;" d="M88.9,244.8h-53c-6.6,0-12,5.4-12,12v123.7c0,6.6,5.4,12,12,12h53c6.6,0,12-5.4,12-12V256.8
		C101,250.1,95.6,244.8,88.9,244.8z"/>
	<path style="fill:#333842;" d="M473.1,244.8h-53c-6.6,0-12,5.4-12,12v123.7c0,6.6,5.4,12,12,12h53c6.6,0,12-5.4,12-12V256.8
		C485.1,250.1,479.7,244.8,473.1,244.8z"/>
</g>
<g>
	<rect x="159.1" y="150.5" style="fill:#393D47;" width="10" height="79.5"/>
	<rect x="339.9" y="150.5" style="fill:#393D47;" width="10" height="79.5"/>
</g>
<rect x="159.1" y="146.1" style="fill:#DDDEE6;" width="190.7" height="21.9"/>
<path style="fill:#F1F3F7;" d="M309.1,200.8H199.9v-30.6c0-1.2,1-2.2,2.2-2.2H307c1.2,0,2.2,1,2.2,2.2v30.6H309.1z"/>
<path style="fill:#393D47;" d="M302.9,194.9h-96.7c-0.6,0-1.1-0.5-1.1-1.1v-19.6c0-0.6,0.5-1.1,1.1-1.1h96.7c0.6,0,1.1,0.5,1.1,1.1
	v19.6C303.9,194.4,303.5,194.9,302.9,194.9z"/>
<polygon style="fill:#646B79;" points="207.8,205.1 218.6,200.8 290.4,200.8 302.4,216.3 293.7,233.1 209.2,221.8 "/>
<ellipse style="fill:#F0582F;" cx="254.5" cy="187" rx="30.5" ry="36.5"/>
<path style="fill:#6EB1E1;" d="M277.9,175.5c0,0-10.1,7-23.4,7c-13.4,0-23.4-7-23.4-7s-3.3,8.6,0,18.5s16.6,13.8,23.4,13.8
	s20.1-3.9,23.4-13.8C281.2,184.1,277.9,175.5,277.9,175.5z"/>
<g>
	<ellipse style="fill:#646B79;" cx="254.5" cy="162.2" rx="18.4" ry="11"/>
	<polygon style="fill:#646B79;" points="101.4,342.7 84.5,326.3 107.3,287.5 214.5,229.9 294.5,229.9 401.7,287.5 424.5,326.3 
		336,369.3 173,369.3 	"/>
</g>
<g>
	<path style="fill:#C9D8ED;" d="M224,262h-63.6v25.5h-53.1v-44.6c0-7.2,5.8-13,13-13h94.2L224,262z"/>
	<path style="fill:#C9D8ED;" d="M285,262h63.6v25.5h53.1v-44.6c0-7.2-5.8-13-13-13h-94.2L285,262z"/>
</g>
<path style="fill:#86939C;" d="M191.1,216.5v17.4c0,0,17.4,0,23,39.3C212,209.7,191.1,216.5,191.1,216.5z"/>
<path style="fill:#C9D8ED;" d="M312.9,200.8h-22.5l3.9,16.3v4.5h-8.1c-9.8-16.8-53.6-16.8-63.4,0h-8.1v-4.5l3.9-16.3h-22.5
	l-5.1,15.7c0,0,20.9-6.9,23,56.7c4.1,28.4,10.2,54.7,13.2,67.2c1.1,4.4,5.1,7.5,9.6,7.5h35.1c4.5,0,8.5-3.1,9.6-7.5
	c3.1-12.4,9.2-38.8,13.2-67.2c2.1-63.6,23-56.7,23-56.7L312.9,200.8z"/>
<path style="fill:#86939C;" d="M317.9,216.5v17.4c0,0-17.4,0-23,39.3C297,209.7,317.9,216.5,317.9,216.5z"/>
<g>
	<path style="fill:#C9D8ED;" d="M84.5,326.3l-9.9,43h98.5v-14.9l-7.3-1.5c-7.1-1.5-11.8-8.1-11-15.3l1.4-11.3L84.5,326.3L84.5,326.3
		z"/>
	<path style="fill:#C9D8ED;" d="M424.5,326.3l9.9,43h-98.5v-14.9l7.3-1.5c7.1-1.5,11.8-8.1,11-15.3l-1.4-11.3L424.5,326.3
		L424.5,326.3z"/>
</g>
<rect x="74.5" y="369.3" style="fill:#6EB1E1;" width="359.9" height="16.7"/>
<polygon style="fill:#BDBDBE;" points="271.7,146.1 237.3,146.1 247.2,116.5 261.8,116.5 "/>
<g>
</g>
<g>
</g>
<g>
</g>
<g>
</g>
<g>
</g>
<g>
</g>
<g>
</g>
<g>
</g>
<g>
</g>
<g>
</g>
<g>
</g>
<g>
</g>
<g>
</g>
<g>
</g>
<g>
</g>
</svg>
