<?xml version="1.0" encoding="iso-8859-1"?>
<!-- Generator: Adobe Illustrator 19.0.0, SVG Export Plug-In . SVG Version: 6.00 Build 0)  -->
<svg version="1.1" id="Layer_1" xmlns="http://www.w3.org/2000/svg" xmlns:xlink="http://www.w3.org/1999/xlink" x="0px" y="0px"
	 viewBox="0 0 512.057 512.057" style="enable-background:new 0 0 512.057 512.057;" xml:space="preserve">
<circle style="fill:#FFE356;" cx="256.028" cy="256.028" r="256.028"/>
<polygon style="fill:#384A66;" points="373.947,234.248 386.595,234.248 386.595,297.49 373.947,297.49 "/>
<path style="fill:#5D718F;" d="M86.383,174.637h271.569c9.472,0,17.242,7.77,17.242,17.242v132.438
	c0,9.472-7.77,17.242-17.242,17.242H86.383c-9.472,0-17.242-7.77-17.242-17.242V191.879
	C69.14,182.407,76.911,174.637,86.383,174.637z"/>
<g>
	<path style="fill:#FEFEFE;" d="M277.468,82.923c35.109,0,63.582,28.473,63.582,63.582s-28.473,63.582-63.582,63.582
		s-63.582-28.473-63.582-63.582S242.359,82.923,277.468,82.923z"/>
	<path style="fill:#FEFEFE;" d="M153.878,82.923c35.109,0,63.582,28.473,63.582,63.582s-28.473,63.582-63.582,63.582
		s-63.582-28.473-63.582-63.582S118.769,82.923,153.878,82.923z"/>
</g>
<polygon style="fill:#8597B1;" points="375.194,293.349 375.194,298.851 69.14,298.851 69.14,293.349 "/>
<path style="fill:#E4E7ED;" d="M153.878,87.517c32.557,0,58.987,26.431,58.987,58.987s-26.431,58.987-58.987,58.987
	S94.89,179.061,94.89,146.504S121.321,87.517,153.878,87.517z"/>
<g>
	<path style="fill:#8597B1;" d="M153.878,131.077c8.508,0,15.427,6.92,15.427,15.427s-6.92,15.427-15.427,15.427
		c-8.508,0-15.428-6.92-15.428-15.427S145.37,131.077,153.878,131.077z"/>
	<path style="fill:#8597B1;" d="M123.023,177.416c-2.893-2.893-2.893-7.544,0-10.436s7.544-2.893,10.436,0s2.893,7.544,0,10.436
		S125.916,180.309,123.023,177.416z M184.79,115.649c2.893,2.893,2.893,7.544,0,10.436c-2.893,2.893-7.544,2.893-10.436,0
		c-2.893-2.893-2.893-7.544,0-10.436C177.246,112.757,181.897,112.757,184.79,115.649z M197.551,146.504
		c0,4.084-3.29,7.373-7.373,7.373c-4.084,0-7.373-3.29-7.373-7.373c0-4.084,3.29-7.373,7.373-7.373
		C194.262,139.131,197.551,142.421,197.551,146.504z M110.204,146.504c0-4.084,3.29-7.373,7.373-7.373s7.373,3.29,7.373,7.373
		c0,4.084-3.29,7.373-7.373,7.373S110.204,150.588,110.204,146.504z M122.966,115.649c2.893-2.893,7.544-2.893,10.436,0
		s2.893,7.544,0,10.436c-2.893,2.893-7.544,2.893-10.436,0C120.074,123.193,120.074,118.542,122.966,115.649z M153.821,102.888
		c4.084,0,7.373,3.29,7.373,7.373s-3.29,7.373-7.373,7.373c-4.084,0-7.373-3.29-7.373-7.373S149.737,102.888,153.821,102.888z
		 M184.676,177.416c-2.893,2.893-7.544,2.893-10.436,0s-2.893-7.544,0-10.436s7.544-2.893,10.436,0S187.569,174.524,184.676,177.416
		z M153.821,190.178c-4.084,0-7.373-3.29-7.373-7.373c0-4.084,3.29-7.373,7.373-7.373c4.084,0,7.373,3.29,7.373,7.373
		C161.195,186.888,157.905,190.178,153.821,190.178z"/>
</g>
<path style="fill:#E4E7ED;" d="M277.468,87.517c32.557,0,58.987,26.431,58.987,58.987s-26.431,58.987-58.987,58.987
	s-58.987-26.431-58.987-58.987S244.911,87.517,277.468,87.517z"/>
<g>
	<path style="fill:#8597B1;" d="M277.468,131.077c8.508,0,15.427,6.92,15.427,15.427s-6.92,15.427-15.427,15.427
		s-15.427-6.92-15.427-15.427S268.96,131.077,277.468,131.077z"/>
	<path style="fill:#8597B1;" d="M246.613,177.416c-2.893-2.893-2.893-7.544,0-10.436s7.544-2.893,10.436,0
		c2.893,2.893,2.893,7.544,0,10.436C254.157,180.309,249.506,180.309,246.613,177.416z M308.38,115.649
		c2.893,2.893,2.893,7.544,0,10.436c-2.893,2.893-7.544,2.893-10.436,0c-2.893-2.893-2.893-7.544,0-10.436
		C300.836,112.757,305.487,112.757,308.38,115.649z M321.141,146.504c0,4.084-3.29,7.373-7.373,7.373s-7.373-3.29-7.373-7.373
		c0-4.084,3.29-7.373,7.373-7.373S321.141,142.421,321.141,146.504z M233.795,146.504c0-4.084,3.29-7.373,7.373-7.373
		c4.084,0,7.373,3.29,7.373,7.373c0,4.084-3.29,7.373-7.373,7.373C237.084,153.878,233.795,150.588,233.795,146.504z
		 M246.556,115.649c2.893-2.893,7.544-2.893,10.436,0c2.893,2.893,2.893,7.544,0,10.436c-2.893,2.893-7.544,2.893-10.436,0
		C243.664,123.193,243.664,118.542,246.556,115.649z M277.411,102.888c4.084,0,7.373,3.29,7.373,7.373s-3.29,7.373-7.373,7.373
		c-4.084,0-7.373-3.29-7.373-7.373S273.328,102.888,277.411,102.888z M308.266,177.416c-2.893,2.893-7.544,2.893-10.436,0
		c-2.893-2.893-2.893-7.544,0-10.436c2.893-2.893,7.544-2.893,10.436,0C311.159,169.873,311.159,174.524,308.266,177.416z
		 M277.411,190.178c-4.084,0-7.373-3.29-7.373-7.373c0-4.084,3.29-7.373,7.373-7.373c4.084,0,7.373,3.29,7.373,7.373
		C284.785,186.888,281.495,190.178,277.411,190.178z"/>
</g>
<path style="fill:#6B7F9E;" d="M69.14,298.851h306.111v25.467c0,9.472-7.77,17.242-17.242,17.242H86.439
	c-9.472,0-17.242-7.77-17.242-17.242v-25.467H69.14z"/>
<path style="fill:#384A66;" d="M226.591,410.303h-23.028l46.85,101.64c1.872,0.057,3.743,0.057,5.558,0.057
	c5.785,0,11.514-0.227,17.242-0.567L226.591,410.303z"/>
<path style="fill:#5D718F;" d="M206.967,410.303h-3.403l46.85,101.64c1.134,0,2.269,0.057,3.403,0.057L206.91,410.303H206.967z"/>
<path style="fill:#FF7069;" d="M96.195,310.875c3.97,0,7.203,3.233,7.203,7.203c0,3.97-3.233,7.203-7.203,7.203
	c-3.97,0-7.203-3.233-7.203-7.203C88.992,314.108,92.225,310.875,96.195,310.875z"/>
<path style="fill:#384A66;" d="M203.564,410.303h23.028l-42.199,91.544c-6.75-1.985-13.442-4.197-19.965-6.693L203.564,410.303z"/>
<path style="fill:#5D718F;" d="M223.188,410.303h3.403l-42.199,91.544c-1.021-0.284-1.985-0.567-3.006-0.908l41.802-90.693V410.303z
	"/>
<path style="fill:#FFE356;" d="M119.393,310.875c3.97,0,7.203,3.233,7.203,7.203c0,3.97-3.233,7.203-7.203,7.203
	c-3.97,0-7.203-3.233-7.203-7.203C112.19,314.108,115.423,310.875,119.393,310.875z"/>
<path style="fill:#83CF8F;" d="M142.591,310.875c3.97,0,7.203,3.233,7.203,7.203c0,3.97-3.233,7.203-7.203,7.203
	s-7.203-3.233-7.203-7.203C135.388,314.108,138.621,310.875,142.591,310.875z"/>
<g>
	<path style="fill:#384A66;" d="M203.564,362.773h23.028v147.582c-7.77-0.908-15.484-2.099-23.028-3.687V362.773z"/>
	<path style="fill:#384A66;" d="M165.278,320.971h99.598v34.542c0,3.97-3.573,7.203-7.884,7.203h-83.83
		c-4.367,0-7.884-3.233-7.884-7.203V320.971z"/>
</g>
<path style="fill:#5D718F;" d="M223.188,362.773h3.403v147.582c-1.134-0.113-2.269-0.227-3.403-0.397V362.773z"/>
<path style="fill:#384A66;" d="M382.228,234.248l69.197-47.077c4.991-3.403,11.117-2.496,11.117,3.346v150.588
	c0,5.899-6.126,6.75-11.117,3.346l-69.197-47.02V234.248z"/>
<path style="fill:#6B7F9E;" d="M455.054,185.64c3.97-1.021,7.544,0.397,7.544,4.935v150.588c0,4.538-3.573,5.955-7.544,4.935V185.64
	z"/>
<path style="fill:#E4E7ED;" d="M184.166,409.793h65.397c2.439,0,4.481,1.928,4.481,4.254v25.807c0,2.325-1.985,4.254-4.481,4.254
	h-65.397c-2.439,0-4.481-1.928-4.481-4.254v-25.807C179.685,411.721,181.67,409.793,184.166,409.793z"/>
<path style="fill:#C6CBD6;" d="M253.986,440.591c-0.34,1.985-2.212,3.517-4.424,3.517h-65.397c-2.212,0-4.027-1.531-4.424-3.517
	H253.986z"/>
<g>
	<path style="fill:#6B7F9E;" d="M177.019,326.643c2.666,0,4.821,2.155,4.821,4.821c0,2.666-2.155,4.821-4.821,4.821
		s-4.821-2.155-4.821-4.821C172.198,328.798,174.353,326.643,177.019,326.643z"/>
	<path style="fill:#6B7F9E;" d="M253.136,326.643c2.666,0,4.821,2.155,4.821,4.821c0,2.666-2.155,4.821-4.821,4.821
		c-2.666,0-4.821-2.155-4.821-4.821C248.315,328.798,250.47,326.643,253.136,326.643z"/>
</g>
<g>
</g>
<g>
</g>
<g>
</g>
<g>
</g>
<g>
</g>
<g>
</g>
<g>
</g>
<g>
</g>
<g>
</g>
<g>
</g>
<g>
</g>
<g>
</g>
<g>
</g>
<g>
</g>
<g>
</g>
</svg>
