<?xml version="1.0" encoding="iso-8859-1"?>
<!-- Generator: Adobe Illustrator 19.0.0, SVG Export Plug-In . SVG Version: 6.00 Build 0)  -->
<svg version="1.1" id="Layer_1" xmlns="http://www.w3.org/2000/svg" xmlns:xlink="http://www.w3.org/1999/xlink" x="0px" y="0px"
	 viewBox="0 0 297 297" style="enable-background:new 0 0 297 297;" xml:space="preserve">
<g>
	<g>
		<circle style="fill:#F36E81;" cx="148.5" cy="148.5" r="148.5"/>
	</g>
	<path style="fill:#C1465D;" d="M297,148.5c0-3.917-0.154-7.797-0.452-11.638l-45.531-45.705L45.166,204.471l92.109,92.109
		c3.706,0.277,7.449,0.42,11.225,0.42C230.514,297,297,230.514,297,148.5z"/>
	<g>
		<path style="fill:#5E345E;" d="M57.802,210.917h181.395c9.004,0,16.302-7.299,16.302-16.302v-92.229
			c0-9.004-7.299-16.302-16.302-16.302H57.802c-9.004,0-16.302,7.299-16.302,16.302v92.229
			C41.5,203.618,48.799,210.917,57.802,210.917z"/>
	</g>
	<g>
		<rect x="41.5" y="121.75" style="fill:#EDB7AB;" width="214" height="53.5"/>
	</g>
	<g>
		<path style="fill:#482649;" d="M239.198,86.083h-88.031v124.833h88.031c9.004,0,16.302-7.299,16.302-16.302v-92.229
			C255.5,93.382,248.201,86.083,239.198,86.083z"/>
	</g>
	<g>
		<rect x="151.167" y="121.75" style="fill:#D6988E;" width="104.333" height="53.5"/>
	</g>
	<g>
		<circle style="fill:#ECF0F1;" cx="105.268" cy="148.5" r="51.338"/>
		<path style="fill:#5E345E;" d="M105.268,203.339c-30.237,0-54.838-24.601-54.838-54.839s24.601-54.839,54.838-54.839
			c30.238,0,54.839,24.601,54.839,54.839S135.506,203.339,105.268,203.339z M105.268,100.661c-26.378,0-47.838,21.46-47.838,47.839
			s21.46,47.839,47.838,47.839c26.379,0,47.839-21.46,47.839-47.839S131.646,100.661,105.268,100.661z"/>
	</g>
	<g>
		<circle style="fill:#5E345E;" cx="105.268" cy="148.5" r="29.182"/>
	</g>
</g>
<g>
</g>
<g>
</g>
<g>
</g>
<g>
</g>
<g>
</g>
<g>
</g>
<g>
</g>
<g>
</g>
<g>
</g>
<g>
</g>
<g>
</g>
<g>
</g>
<g>
</g>
<g>
</g>
<g>
</g>
</svg>
