<?xml version="1.0" encoding="iso-8859-1"?>
<!-- Generator: Adobe Illustrator 19.0.0, SVG Export Plug-In . SVG Version: 6.00 Build 0)  -->
<svg version="1.1" id="Layer_1" xmlns="http://www.w3.org/2000/svg" xmlns:xlink="http://www.w3.org/1999/xlink" x="0px" y="0px"
	 viewBox="0 0 508 508" style="enable-background:new 0 0 508 508;" xml:space="preserve">
<circle style="fill:#FD8469;" cx="254" cy="254" r="254"/>
<ellipse style="fill:#324A5E;" cx="254" cy="144" rx="70.4" ry="70"/>
<path style="fill:#E6E9EE;" d="M418,194c-54.4-6-114.8,10.4-164,46v189.2c49.2-36,109.6-52.4,164-46V194z"/>
<path style="fill:#FFFFFF;" d="M90,194c54.4-6,114.8,10.4,164,46v189.2c-49.2-36-109.6-52.4-164-46V194z"/>
<g>
	<path style="fill:#FFD05B;" d="M308.4,162c0,30-24.4,54.4-54.4,54.4c-28,0-51.2-21.2-54-48.8c10.8-2.4,22.8-8.4,33.6-17.6
		c10.4-8.8,18-19.2,22.4-29.2c4.8,6.4,11.6,12.8,19.6,18.4c11.2,8,22.8,13.2,32.4,14.8C308,157.2,308.4,159.6,308.4,162z"/>
	<path style="fill:#FFD05B;" d="M432.4,288c0-4-2-7.2-4.8-7.2c2.4,0,4.8-3.2,4.8-7.2s-2-7.2-4.8-7.2h-18.8c-2.4,0-4.8,3.2-4.8,7.2
		s2,7.2,4.8,7.2c-2.4,0-4.8,3.2-4.8,7.2s2,7.2,4.8,7.2c-2.4,0-4.8,3.2-4.8,7.2s2,7.2,4.8,7.2c-2.4,0-4.8,3.2-4.8,7.2s2,7.2,4.8,7.2
		h18.8c2.4,0,4.8-3.2,4.8-7.2s-2-7.2-4.8-7.2c2.4,0,4.8-3.2,4.8-7.2s-2-7.2-4.8-7.2C430,295.2,432.4,292,432.4,288z"/>
	<path style="fill:#FFD05B;" d="M104,288c0-4-2-7.2-4.8-7.2c2.4,0,4.8-3.2,4.8-7.2s-2-7.2-4.8-7.2H80.4c-2.4,0-4.8,3.2-4.8,7.2
		s2,7.2,4.8,7.2c-2.4,0-4.8,3.2-4.8,7.2s2,7.2,4.8,7.2c-2.4,0-4.8,3.2-4.8,7.2s2,7.2,4.8,7.2c-2.4,0-4.8,3.2-4.8,7.2s2,7.2,4.8,7.2
		h18.8c2.4,0,4.8-3.2,4.8-7.2s-2-7.2-4.8-7.2c2.4,0,4.8-3.2,4.8-7.2s-2-7.2-4.8-7.2C102,295.2,104,292,104,288z"/>
</g>
<g>
</g>
<g>
</g>
<g>
</g>
<g>
</g>
<g>
</g>
<g>
</g>
<g>
</g>
<g>
</g>
<g>
</g>
<g>
</g>
<g>
</g>
<g>
</g>
<g>
</g>
<g>
</g>
<g>
</g>
</svg>
