<?xml version="1.0" encoding="iso-8859-1"?>
<!-- Generator: Adobe Illustrator 19.0.0, SVG Export Plug-In . SVG Version: 6.00 Build 0)  -->
<svg version="1.1" id="Layer_1" xmlns="http://www.w3.org/2000/svg" xmlns:xlink="http://www.w3.org/1999/xlink" x="0px" y="0px"
	 viewBox="0 0 512 512" style="enable-background:new 0 0 512 512;" xml:space="preserve">
<circle style="fill:#FEE187;" cx="256" cy="256" r="256"/>
<path style="fill:#FFC61B;" d="M311.708,102.657c-24.764,30.899-13.036,75.035-28.126,110.245
	c-1.724,5.172-6.896,10.343-8.62,15.515c-32.039,69.136-52.552,139.881-87.169,207.62l75.814,75.841
	c123.202-3.596,224.556-94.236,244.726-212.561L311.708,102.657z"/>
<path style="fill:#E03A00;" d="M230.203,295.002l-27.008,40.601l-27.007-40.601l0.002-163.112c0-6.818,5.527-12.343,12.345-12.343
	h29.327c6.818,0,12.345,5.527,12.345,12.345L230.203,295.002z"/>
<polygon style="fill:#121149;" points="203.195,335.603 212.38,321.826 194.01,321.826 "/>
<path style="fill:#FF7F4F;" d="M217.86,119.546h-29.327c-6.818,0-12.345,5.527-12.345,12.343v22.983h54.015v-22.983
	C230.203,125.073,224.677,119.546,217.86,119.546z"/>
<polygon style="fill:#FFEDB5;" points="176.188,295.002 176.188,295.002 194.01,321.826 212.38,321.826 230.203,295.002 
	230.203,295.002 "/>
<path style="fill:#121149;" d="M307.088,112.475h-34.611c-0.936,0-1.833,0.371-2.495,1.033s-1.033,1.558-1.033,2.494l0.005,193.36
	c0,0.936,0.371,1.833,1.033,2.495s1.558,1.033,2.495,1.033h34.611c0.974,0,1.857-0.395,2.495-1.033
	c0.638-0.638,1.033-1.521,1.033-2.495l-0.005-193.36C310.615,114.054,309.036,112.473,307.088,112.475z"/>
<path style="fill:#366695;" d="M312.889,195.424l-0.002-89.967c0-2.162-1.751-3.913-3.912-3.913c0,0-39.288,0-39.472,0
	c-8.606,0.002-15.608,7.004-15.608,15.61l0.002,75.779c0,2.16,1.752,3.913,3.912,3.912c1.079,0,2.058-0.438,2.767-1.146
	s1.146-1.686,1.146-2.767l-0.002-75.779c0-3.293,2.062-6.099,4.958-7.235l0.002,85.504h46.209V195.424z"/>
<path style="fill:#386895;" d="M209.489,444.813h93.022c17.349,0,31.877-14.619,33.604-33.814l16.227-180.438H159.658
	l16.227,180.438C177.612,430.194,192.14,444.813,209.489,444.813z"/>
<path style="fill:#273B7A;" d="M254.995,230.56v214.252h47.516c17.349,0,31.877-14.619,33.604-33.814l16.227-180.438H254.995z"/>
<g>
</g>
<g>
</g>
<g>
</g>
<g>
</g>
<g>
</g>
<g>
</g>
<g>
</g>
<g>
</g>
<g>
</g>
<g>
</g>
<g>
</g>
<g>
</g>
<g>
</g>
<g>
</g>
<g>
</g>
</svg>
