<?xml version="1.0" standalone="no"?>
<!DOCTYPE svg PUBLIC "-//W3C//DTD SVG 20010904//EN"
 "http://www.w3.org/TR/2001/REC-SVG-20010904/DTD/svg10.dtd">
<svg version="1.0" xmlns="http://www.w3.org/2000/svg"
 width="145.000000pt" height="145.000000pt" viewBox="0 0 145.000000 145.000000"
 preserveAspectRatio="xMidYMid meet">
<metadata>
Created by potrace 1.11, written by Peter Selinger 2001-2013
</metadata>
<g transform="translate(0.000000,145.000000) scale(0.100000,-0.100000)"
fill="#000000" stroke="none">
<path d="M158 1333 c-15 -4 -16 -51 -15 -621 l2 -617 26 -3 25 -3 0 591 c-1
384 3 594 9 599 6 4 174 6 375 5 348 -1 368 -2 421 -23 166 -63 271 -205 270
-363 -1 -156 -93 -304 -226 -364 -72 -33 -128 -40 -322 -39 l-173 0 0 -27 0
-27 102 -3 c98 -3 102 -4 109 -28 4 -14 29 -91 54 -172 46 -145 48 -148 76
-148 18 0 27 4 24 13 -2 6 -25 80 -51 162 -26 83 -49 156 -51 163 -3 7 4 12
20 12 23 0 28 -8 53 -83 16 -45 29 -84 29 -87 1 -3 14 -44 29 -92 26 -85 28
-88 58 -88 20 0 29 4 26 12 -3 7 -29 84 -58 172 -42 128 -50 160 -39 167 8 5
18 7 23 6 5 -2 36 -83 70 -180 59 -172 61 -177 88 -177 15 0 28 1 28 3 0 2
-27 84 -60 182 -59 173 -63 206 -27 192 8 -3 28 -47 46 -99 97 -280 94 -273
124 -276 20 -3 28 1 25 10 -1 7 -32 100 -68 206 l-65 192 35 28 c110 86 169
201 174 342 3 89 -6 134 -40 206 -49 104 -141 189 -254 235 -53 21 -67 22
-455 24 -220 1 -408 0 -417 -2z"/>
<path d="M250 661 l0 -571 28 0 27 0 0 543 0 542 315 0 c308 -1 316 -1 368
-24 66 -30 143 -112 161 -172 27 -88 12 -181 -41 -255 -69 -97 -139 -122 -349
-123 -85 0 -166 -1 -181 -1 -23 0 -28 -4 -28 -26 l0 -26 208 4 c202 3 208 4
262 30 68 33 132 96 162 157 29 60 30 62 31 156 1 68 -3 88 -27 135 -36 73
-88 125 -161 163 l-60 32 -357 3 -358 3 0 -570z"/>
<path d="M360 605 l0 -515 25 0 25 0 2 488 3 487 244 0 c259 0 293 -4 338 -47
84 -78 74 -214 -20 -276 -42 -28 -77 -31 -399 -32 -23 0 -28 -4 -28 -25 l0
-25 193 0 c221 0 247 7 310 81 45 52 55 84 53 165 -3 82 -47 146 -126 187
l-54 27 -283 0 -283 0 0 -515z"/>
<path d="M480 1012 c-6 -2 -10 -166 -10 -463 l0 -459 25 0 25 0 0 434 0 434
196 -2 c195 -1 196 -1 216 -26 14 -17 18 -33 14 -54 -11 -52 -25 -55 -218 -56
l-178 0 0 -24 c0 -13 6 -26 13 -28 21 -7 341 -2 367 7 44 14 70 54 70 109 0
50 -14 81 -50 106 -30 21 -41 22 -246 24 -118 0 -219 0 -224 -2z"/>
</g>
</svg>
